<svg xmlns="http://www.w3.org/2000/svg" xmlns:xlink="http://www.w3.org/1999/xlink" width="500" zoomAndPan="magnify" viewBox="0 0 375 374.999991" height="500" preserveAspectRatio="xMidYMid meet" version="1.0"><defs><clipPath id="7fc1b0c18a"><path d="M 55.035156 204.078125 L 181 204.078125 L 181 374.996094 L 55.035156 374.996094 Z M 55.035156 204.078125 " clip-rule="nonzero"/></clipPath><clipPath id="385bb2a95b"><path d="M 54.621094 341.097656 L 100 341.097656 L 100 374.996094 L 54.621094 374.996094 Z M 54.621094 341.097656 " clip-rule="nonzero"/></clipPath><clipPath id="b8afdd4402"><path d="M 273 334.058594 L 318.316406 334.058594 L 318.316406 369 L 273 369 Z M 273 334.058594 " clip-rule="nonzero"/></clipPath><clipPath id="2e623fb53b"><path d="M 55.035156 204.078125 L 181 204.078125 L 181 374.996094 L 55.035156 374.996094 Z M 55.035156 204.078125 " clip-rule="nonzero"/></clipPath><clipPath id="51ee4279cf"><path d="M 54.621094 341.097656 L 100 341.097656 L 100 374.996094 L 54.621094 374.996094 Z M 54.621094 341.097656 " clip-rule="nonzero"/></clipPath><clipPath id="d855e92374"><path d="M 273 334.058594 L 318.316406 334.058594 L 318.316406 369 L 273 369 Z M 273 334.058594 " clip-rule="nonzero"/></clipPath></defs><path fill="#ffaa71" d="M 109.195312 0 C 111.703125 79.734375 115.820312 186.644531 115.820312 186.644531 L 169.878906 186.03125 L 173.957031 0 L 109.195312 0 " fill-opacity="1" fill-rule="nonzero"/><path fill="#8530f0" d="M 170.683594 204.542969 L 169.941406 184.820312 C 169.941406 184.820312 138.308594 185.839844 115.882812 185.433594 C 114.929688 199.21875 114.480469 206.761719 114.480469 206.761719 L 170.683594 204.542969 " fill-opacity="1" fill-rule="nonzero"/><path fill="#682bc9" d="M 166.925781 204.421875 L 166.019531 204.363281 L 167.234375 184.988281 L 168.144531 185.046875 L 166.925781 204.421875 " fill-opacity="1" fill-rule="nonzero"/><path fill="#682bc9" d="M 162.074219 204.464844 L 161.164062 204.40625 L 162.371094 185.152344 L 163.28125 185.210938 L 162.074219 204.464844 " fill-opacity="1" fill-rule="nonzero"/><path fill="#682bc9" d="M 156.195312 206.324219 L 157.511719 185.300781 L 158.421875 185.355469 L 158.421875 185.386719 L 157.214844 204.621094 L 156.195312 206.324219 " fill-opacity="1" fill-rule="nonzero"/><path fill="#682bc9" d="M 152.367188 204.570312 L 151.457031 204.511719 L 152.65625 185.429688 L 153.566406 185.484375 L 152.367188 204.570312 " fill-opacity="1" fill-rule="nonzero"/><path fill="#682bc9" d="M 147.515625 204.632812 L 146.605469 204.574219 L 147.800781 185.539062 L 148.710938 185.59375 L 147.515625 204.632812 " fill-opacity="1" fill-rule="nonzero"/><path fill="#682bc9" d="M 142.660156 204.710938 L 141.75 204.652344 L 142.945312 185.628906 L 143.855469 185.683594 L 142.660156 204.710938 " fill-opacity="1" fill-rule="nonzero"/><path fill="#682bc9" d="M 137.804688 204.796875 L 136.894531 204.742188 L 138.089844 185.699219 L 139 185.757812 L 137.804688 204.796875 " fill-opacity="1" fill-rule="nonzero"/><path fill="#682bc9" d="M 132.949219 204.902344 L 132.039062 204.84375 L 133.238281 185.746094 L 134.148438 185.800781 L 132.949219 204.902344 " fill-opacity="1" fill-rule="nonzero"/><path fill="#682bc9" d="M 128.089844 205.03125 L 127.183594 204.976562 L 128.386719 185.765625 L 129.296875 185.820312 L 128.089844 205.03125 " fill-opacity="1" fill-rule="nonzero"/><path fill="#682bc9" d="M 123.230469 205.199219 L 122.320312 205.144531 L 123.535156 185.753906 L 124.445312 185.808594 L 123.230469 205.199219 " fill-opacity="1" fill-rule="nonzero"/><path fill="#682bc9" d="M 118.363281 205.453125 L 117.453125 205.398438 L 118.691406 185.703125 L 119.597656 185.761719 L 118.363281 205.453125 " fill-opacity="1" fill-rule="nonzero"/><g clip-path="url(#7fc1b0c18a)"><path fill="#ffd400" d="M 64.347656 330.53125 C 60.917969 333.148438 58.183594 337.246094 56.605469 341.910156 C 52.808594 353.125 55.71875 367.582031 71.84375 372.417969 C 83.949219 376.046875 92.636719 375.070312 99.792969 371.519531 C 103.351562 369.753906 106.523438 367.359375 109.550781 364.578125 C 111.925781 362.394531 114.207031 359.984375 116.507812 357.453125 C 116.980469 356.933594 117.46875 356.390625 117.984375 355.835938 C 118.570312 355.199219 119.175781 354.539062 119.808594 353.863281 C 121.597656 351.9375 123.582031 349.84375 125.710938 347.640625 C 127.378906 345.917969 129.136719 344.128906 130.96875 342.304688 C 134.140625 339.140625 137.53125 335.863281 141.046875 332.621094 C 141.386719 332.308594 141.726562 331.996094 142.070312 331.683594 C 144.585938 329.378906 147.164062 327.101562 149.761719 324.902344 C 150.191406 324.539062 150.621094 324.175781 151.050781 323.820312 C 155.03125 320.496094 159.054688 317.375 162.996094 314.648438 C 164.605469 313.535156 166.199219 312.488281 167.765625 311.519531 C 167.765625 311.519531 167.777344 311.515625 167.789062 311.507812 C 168.257812 311.214844 168.726562 310.933594 169.191406 310.65625 C 184.160156 301.800781 181.3125 288.980469 178.710938 284.277344 C 177.382812 281.871094 177.414062 281.277344 176.066406 278.703125 C 174.109375 274.972656 172.230469 267.546875 171.378906 257.339844 C 171 252.769531 170.824219 247.644531 170.941406 242.042969 C 170.96875 240.746094 171.015625 239.425781 171.074219 238.074219 C 171.359375 231.667969 171.648438 227.242188 171.628906 225.695312 C 171.609375 224.382812 171.589844 223.128906 171.558594 221.9375 C 171.390625 214.335938 171.074219 209.261719 170.863281 206.597656 C 170.851562 206.457031 170.839844 206.324219 170.828125 206.195312 C 170.761719 205.355469 170.710938 204.808594 170.683594 204.542969 C 170.671875 204.421875 170.664062 204.363281 170.664062 204.363281 C 170.664062 204.363281 169.089844 204.371094 166.472656 204.390625 C 165.113281 204.402344 163.472656 204.414062 161.621094 204.433594 C 160.125 204.449219 158.496094 204.464844 156.765625 204.484375 C 155.21875 204.496094 153.589844 204.515625 151.914062 204.539062 C 150.332031 204.558594 148.707031 204.578125 147.0625 204.605469 C 145.457031 204.628906 143.832031 204.65625 142.207031 204.679688 C 140.578125 204.707031 138.953125 204.738281 137.351562 204.769531 C 135.699219 204.800781 134.074219 204.835938 132.496094 204.871094 C 130.808594 204.914062 129.179688 204.957031 127.636719 205.003906 C 125.890625 205.054688 124.257812 205.113281 122.773438 205.171875 C 120.871094 205.246094 119.21875 205.332031 117.910156 205.421875 L 117.910156 205.425781 C 116.152344 205.542969 115.007812 205.679688 114.695312 205.828125 C 114.632812 205.859375 114.574219 205.917969 114.515625 206.007812 C 113.136719 208.042969 112.109375 225.628906 111.625 242.835938 C 111.519531 246.550781 111.4375 250.25 111.386719 253.769531 C 111.269531 261.476562 111.28125 268.332031 111.441406 272.660156 C 111.625 277.476562 108.421875 283.890625 103.550781 290.730469 C 103.324219 291.050781 103.089844 291.375 102.855469 291.695312 L 102.855469 291.699219 L 102.839844 291.714844 C 102.003906 292.859375 101.128906 294.011719 100.207031 295.171875 C 98.5 297.335938 96.664062 299.523438 94.75 301.6875 C 91.824219 305 88.726562 308.273438 85.640625 311.378906 C 84.390625 312.636719 83.140625 313.867188 81.910156 315.058594 C 81.699219 315.261719 81.492188 315.460938 81.28125 315.660156 L 81.28125 315.664062 L 81.21875 315.722656 C 80.011719 316.886719 78.816406 318.011719 77.652344 319.09375 L 77.527344 319.210938 C 73.421875 323.011719 69.664062 326.269531 66.746094 328.636719 C 65.863281 329.355469 65.0625 329.988281 64.347656 330.53125 " fill-opacity="1" fill-rule="nonzero"/></g><path fill="#8530f0" d="M 176.066406 278.703125 C 176.066406 278.703125 145.84375 284.78125 145.597656 289.878906 C 145.371094 294.601562 167.765625 311.519531 167.765625 311.519531 C 167.765625 311.519531 190.996094 302.128906 176.066406 278.703125 " fill-opacity="1" fill-rule="nonzero"/><g clip-path="url(#385bb2a95b)"><path fill="#8530f0" d="M 99.792969 371.519531 C 99.792969 371.519531 95.855469 355.464844 81.796875 346.414062 C 70.832031 339.355469 56.605469 341.910156 56.605469 341.910156 C 56.605469 341.910156 50.933594 352.695312 58.769531 364.1875 C 64.6875 372.996094 76.789062 374.386719 76.789062 374.386719 C 76.789062 374.386719 91.726562 376.964844 99.792969 371.519531 " fill-opacity="1" fill-rule="nonzero"/></g><path fill="#60f0d9" d="M 159.148438 212.726562 L 155.878906 218.851562 L 149.320312 219.648438 L 153.742188 224.625 L 152.234375 231.417969 L 158.238281 228.371094 L 163.863281 231.769531 L 163.152344 224.910156 L 168.140625 220.21875 L 161.695312 219.027344 L 159.148438 212.726562 " fill-opacity="1" fill-rule="nonzero"/><path fill="#60f0d9" d="M 129.585938 213.222656 L 126.316406 219.339844 L 119.757812 220.140625 L 124.179688 225.117188 L 122.671875 231.910156 L 128.675781 228.863281 L 134.304688 232.261719 L 133.589844 225.402344 L 138.578125 220.710938 L 132.132812 219.519531 L 129.585938 213.222656 " fill-opacity="1" fill-rule="nonzero"/><path fill="#60f0d9" d="M 144.324219 237.101562 L 141.050781 243.222656 L 134.492188 244.023438 L 138.914062 249 L 137.40625 255.789062 L 143.410156 252.742188 L 149.039062 256.144531 L 148.324219 249.285156 L 153.3125 244.59375 L 146.867188 243.398438 L 144.324219 237.101562 " fill-opacity="1" fill-rule="nonzero"/><path fill="#60f0d9" d="M 159.917969 256.113281 L 156.648438 262.234375 L 150.089844 263.035156 L 154.511719 268.011719 L 153.003906 274.800781 L 159.007812 271.753906 L 164.636719 275.152344 L 163.921875 268.296875 L 168.910156 263.605469 L 162.464844 262.410156 L 159.917969 256.113281 " fill-opacity="1" fill-rule="nonzero"/><path fill="#60f0d9" d="M 128.132812 260.296875 L 124.863281 266.417969 L 118.304688 267.214844 L 122.726562 272.195312 L 121.21875 278.984375 L 127.222656 275.9375 L 132.851562 279.335938 L 132.136719 272.476562 L 137.125 267.789062 L 130.679688 266.59375 L 128.132812 260.296875 " fill-opacity="1" fill-rule="nonzero"/><path fill="#60f0d9" d="M 85.640625 311.378906 L 87.425781 315.796875 L 93.871094 316.992188 L 88.882812 321.683594 L 89.59375 328.542969 L 83.964844 325.140625 L 77.960938 328.1875 L 79.472656 321.398438 L 77.527344 319.210938 L 77.652344 319.09375 L 81.21875 315.722656 L 81.28125 315.664062 L 81.28125 315.660156 L 81.609375 315.621094 L 81.910156 315.058594 L 85.640625 311.378906 " fill-opacity="1" fill-rule="nonzero"/><path fill="#60f0d9" d="M 121.765625 311.523438 L 118.496094 317.640625 L 111.933594 318.441406 L 116.359375 323.417969 L 114.847656 330.210938 L 120.851562 327.164062 L 126.480469 330.5625 L 125.769531 323.703125 L 130.757812 319.011719 L 124.3125 317.820312 L 121.765625 311.523438 " fill-opacity="1" fill-rule="nonzero"/><path fill="#60f0d9" d="M 98.691406 331.859375 L 95.421875 337.980469 L 88.859375 338.777344 L 93.28125 343.753906 L 91.773438 350.546875 L 97.777344 347.5 L 103.40625 350.898438 L 102.695312 344.039062 L 107.679688 339.347656 L 101.238281 338.15625 L 98.691406 331.859375 " fill-opacity="1" fill-rule="nonzero"/><path fill="#60f0d9" d="M 117.984375 355.835938 L 118.273438 354.523438 L 113.851562 349.542969 L 120.410156 348.746094 L 123.683594 342.625 L 125.710938 347.640625 L 117.984375 355.835938 " fill-opacity="1" fill-rule="nonzero"/><path fill="#60f0d9" d="M 138.046875 327.15625 L 142.070312 331.683594 C 144.585938 329.378906 147.164062 327.101562 149.761719 324.902344 L 147.875 320.234375 L 144.605469 326.355469 L 138.046875 327.15625 " fill-opacity="1" fill-rule="nonzero"/><path fill="#60f0d9" d="M 149.648438 295.980469 L 146.574219 295.410156 L 144.027344 289.109375 L 140.757812 295.234375 L 134.195312 296.03125 L 138.621094 301.011719 L 137.113281 307.800781 L 143.113281 304.753906 L 148.746094 308.152344 L 148.03125 301.292969 L 151.601562 297.933594 L 149.648438 295.980469 " fill-opacity="1" fill-rule="nonzero"/><path fill="#60f0d9" d="M 102.855469 291.699219 L 102.855469 291.695312 L 104.238281 291.527344 L 107.507812 285.40625 L 110.054688 291.703125 L 116.5 292.898438 L 111.507812 297.589844 L 112.222656 304.445312 L 106.59375 301.050781 L 100.589844 304.09375 L 102.097656 297.300781 L 100.207031 295.171875 L 102.855469 291.699219 " fill-opacity="1" fill-rule="nonzero"/><path fill="#60f0d9" d="M 111.625 242.835938 C 111.519531 246.550781 111.4375 250.25 111.386719 253.769531 L 114.21875 252.332031 L 119.847656 255.730469 L 119.132812 248.871094 L 124.121094 244.179688 L 117.675781 242.984375 L 115.128906 236.6875 L 111.859375 242.808594 L 111.625 242.835938 " fill-opacity="1" fill-rule="nonzero"/><path fill="#ffaa71" d="M 197.101562 0 C 199.613281 79.734375 203.726562 186.644531 203.726562 186.644531 L 257.785156 186.03125 L 261.863281 0 L 197.101562 0 " fill-opacity="1" fill-rule="nonzero"/><path fill="#7ff048" d="M 203.214844 202.765625 L 203.5625 181.28125 C 203.5625 181.28125 235.730469 181.136719 258.054688 179.835938 C 259.3125 194.421875 259.347656 201.082031 259.347656 201.082031 L 203.214844 202.765625 " fill-opacity="1" fill-rule="nonzero"/><path fill="#40d3ac" d="M 207.148438 200.804688 L 206.023438 181.386719 L 206.933594 181.332031 L 208.058594 200.753906 L 207.148438 200.804688 " fill-opacity="1" fill-rule="nonzero"/><path fill="#40d3ac" d="M 211.980469 200.652344 L 210.863281 181.355469 L 211.769531 181.304688 L 212.890625 200.601562 L 211.980469 200.652344 " fill-opacity="1" fill-rule="nonzero"/><path fill="#40d3ac" d="M 217.839844 202.53125 L 216.816406 200.605469 L 215.699219 181.308594 L 216.609375 181.257812 L 217.839844 202.53125 " fill-opacity="1" fill-rule="nonzero"/><path fill="#40d3ac" d="M 221.640625 200.371094 L 220.53125 181.246094 L 221.441406 181.191406 L 222.550781 200.316406 L 221.640625 200.371094 " fill-opacity="1" fill-rule="nonzero"/><path fill="#40d3ac" d="M 226.472656 200.238281 L 225.363281 181.160156 L 226.273438 181.109375 L 227.382812 200.1875 L 226.472656 200.238281 " fill-opacity="1" fill-rule="nonzero"/><path fill="#40d3ac" d="M 231.304688 200.125 L 230.199219 181.054688 L 231.109375 181.003906 L 232.214844 200.070312 L 231.304688 200.125 " fill-opacity="1" fill-rule="nonzero"/><path fill="#40d3ac" d="M 236.136719 200.019531 L 235.03125 180.933594 L 235.941406 180.882812 L 237.046875 199.964844 L 236.136719 200.019531 " fill-opacity="1" fill-rule="nonzero"/><path fill="#40d3ac" d="M 240.972656 199.929688 L 239.859375 180.785156 L 240.769531 180.734375 L 241.882812 199.878906 L 240.972656 199.929688 " fill-opacity="1" fill-rule="nonzero"/><path fill="#40d3ac" d="M 245.808594 199.867188 L 244.691406 180.609375 L 245.601562 180.558594 L 246.714844 199.8125 L 245.808594 199.867188 " fill-opacity="1" fill-rule="nonzero"/><path fill="#40d3ac" d="M 250.644531 199.839844 L 249.515625 180.40625 L 250.429688 180.355469 L 251.554688 199.789062 L 250.644531 199.839844 " fill-opacity="1" fill-rule="nonzero"/><path fill="#40d3ac" d="M 255.488281 199.898438 L 254.34375 180.164062 L 255.25 180.113281 L 256.398438 199.847656 L 255.488281 199.898438 " fill-opacity="1" fill-rule="nonzero"/><path fill="#f06930" d="M 308.71875 323.433594 C 312.121094 325.925781 314.828125 329.933594 316.375 334.554688 C 320.109375 345.671875 317.148438 360.316406 301.078125 365.816406 C 289.011719 369.949219 280.367188 369.3125 273.257812 366.03125 C 269.726562 364.402344 266.578125 362.125 263.574219 359.445312 C 261.222656 357.351562 258.960938 355.019531 256.683594 352.566406 C 255.683594 351.488281 254.585938 350.328125 253.410156 349.089844 C 250.246094 345.773438 246.488281 341.9375 242.351562 337.925781 C 239.207031 334.875 235.84375 331.71875 232.363281 328.597656 C 229.136719 325.714844 225.804688 322.859375 222.445312 320.15625 C 218.492188 316.976562 214.5 314.003906 210.589844 311.421875 C 208.992188 310.363281 207.410156 309.375 205.847656 308.460938 C 205.84375 308.460938 205.835938 308.457031 205.832031 308.453125 C 205.367188 308.179688 204.902344 307.914062 204.441406 307.65625 C 189.578125 299.355469 192.46875 286.359375 195.078125 281.527344 C 196.410156 279.0625 196.378906 278.464844 197.734375 275.824219 C 199.699219 271.996094 201.601562 264.460938 202.496094 254.171875 L 202.492188 254.171875 C 202.890625 249.566406 203.085938 244.410156 202.992188 238.785156 C 202.96875 237.484375 202.933594 236.15625 202.878906 234.804688 C 202.621094 228.378906 202.351562 223.9375 202.378906 222.386719 C 202.402344 221.066406 202.433594 219.804688 202.464844 218.609375 C 202.664062 210.964844 203.003906 205.855469 203.226562 203.167969 C 203.234375 203.027344 203.25 202.890625 203.261719 202.761719 C 203.328125 201.917969 203.382812 201.367188 203.414062 201.097656 C 203.425781 200.976562 203.429688 200.914062 203.429688 200.914062 C 203.429688 200.914062 256.714844 199.074219 259.140625 200.152344 C 261.5625 201.230469 262.746094 251.21875 262.089844 267.167969 C 261.890625 272.015625 265.050781 278.332031 269.867188 285.011719 C 272.398438 288.515625 275.382812 292.121094 278.582031 295.667969 C 284.019531 301.699219 290.070312 307.5625 295.527344 312.472656 C 299.640625 316.175781 303.417969 319.339844 306.34375 321.628906 C 307.214844 322.3125 308.011719 322.917969 308.71875 323.433594 " fill-opacity="1" fill-rule="nonzero"/><path fill="#7ff048" d="M 197.734375 275.824219 C 197.734375 275.824219 227.792969 280.726562 228.015625 285.835938 C 228.222656 290.574219 205.851562 308.464844 205.851562 308.464844 C 205.851562 308.464844 182.773438 299.960938 197.734375 275.824219 " fill-opacity="1" fill-rule="nonzero"/><g clip-path="url(#b8afdd4402)"><path fill="#7ff048" d="M 273.257812 366.03125 C 273.257812 366.03125 277.25 349.746094 291.285156 340.085938 C 302.226562 332.558594 316.378906 334.554688 316.378906 334.554688 C 316.378906 334.554688 321.980469 345.164062 314.128906 357.027344 C 308.199219 366.113281 296.144531 367.992188 296.144531 367.992188 C 296.144531 367.992188 281.265625 371.183594 273.257812 366.03125 " fill-opacity="1" fill-rule="nonzero"/></g><path fill="#ffd400" d="M 212.316406 220.152344 C 210.632812 216.054688 211.78125 211.378906 214.851562 208.589844 C 213.96875 208.710938 213.082031 208.96875 212.226562 209.371094 C 207.488281 211.609375 205.320312 217.476562 207.375 222.484375 C 209.4375 227.488281 214.941406 229.734375 219.675781 227.503906 C 220.535156 227.097656 221.308594 226.574219 221.988281 225.957031 C 218 226.5 214.003906 224.25 212.316406 220.152344 " fill-opacity="1" fill-rule="nonzero"/><path fill="#ffd400" d="M 247.933594 218.363281 C 246.015625 214.382812 246.894531 209.644531 249.800781 206.664062 C 248.925781 206.84375 248.058594 207.15625 247.222656 207.613281 C 242.621094 210.152344 240.792969 216.148438 243.132812 221.007812 C 245.476562 225.867188 251.105469 227.753906 255.707031 225.21875 C 256.542969 224.757812 257.285156 224.183594 257.929688 223.523438 C 253.972656 224.324219 249.851562 222.339844 247.933594 218.363281 " fill-opacity="1" fill-rule="nonzero"/><path fill="#ffd400" d="M 230.613281 242.386719 C 228.695312 238.40625 229.574219 233.667969 232.480469 230.691406 C 231.605469 230.867188 230.734375 231.179688 229.902344 231.640625 C 225.300781 234.175781 223.46875 240.171875 225.8125 245.03125 C 228.15625 249.894531 233.785156 251.777344 238.386719 249.242188 C 239.21875 248.78125 239.964844 248.207031 240.609375 247.546875 C 236.652344 248.351562 232.53125 246.363281 230.613281 242.386719 " fill-opacity="1" fill-rule="nonzero"/><path fill="#ffd400" d="M 212.660156 265.105469 C 210.742188 261.125 211.621094 256.386719 214.527344 253.40625 C 213.652344 253.585938 212.78125 253.898438 211.949219 254.359375 C 207.347656 256.894531 205.515625 262.890625 207.859375 267.75 C 210.203125 272.609375 215.832031 274.496094 220.433594 271.960938 C 221.269531 271.5 222.011719 270.925781 222.65625 270.269531 C 218.699219 271.066406 214.578125 269.082031 212.660156 265.105469 " fill-opacity="1" fill-rule="nonzero"/><path fill="#ffd400" d="M 250.070312 266.097656 C 248.152344 262.117188 249.03125 257.378906 251.9375 254.398438 C 251.0625 254.578125 250.195312 254.890625 249.359375 255.351562 C 244.757812 257.886719 242.929688 263.882812 245.269531 268.742188 C 247.613281 273.601562 253.242188 275.488281 257.84375 272.953125 C 258.679688 272.492188 259.421875 271.917969 260.066406 271.257812 C 256.109375 272.0625 251.992188 270.078125 250.070312 266.097656 " fill-opacity="1" fill-rule="nonzero"/><path fill="#ffd400" d="M 240.875 295.316406 C 238.335938 291.757812 238.433594 286.9375 240.816406 283.476562 C 239.980469 283.808594 239.175781 284.277344 238.425781 284.882812 C 234.300781 288.21875 233.46875 294.449219 236.570312 298.800781 C 239.671875 303.148438 245.53125 303.972656 249.65625 300.636719 C 250.40625 300.03125 251.046875 299.332031 251.574219 298.566406 C 247.800781 300.078125 243.414062 298.878906 240.875 295.316406 " fill-opacity="1" fill-rule="nonzero"/><path fill="#ffd400" d="M 278.574219 333.554688 C 275.535156 330.46875 274.914062 325.699219 276.757812 321.886719 C 275.980469 322.355469 275.253906 322.953125 274.601562 323.675781 C 271.015625 327.652344 271.117188 333.9375 274.832031 337.707031 C 278.546875 341.476562 284.460938 341.304688 288.050781 337.328125 C 288.703125 336.605469 289.230469 335.804688 289.636719 334.960938 C 286.132812 337.085938 281.613281 336.640625 278.574219 333.554688 " fill-opacity="1" fill-rule="nonzero"/><path fill="#ffd400" d="M 245.726562 328.59375 C 242.574219 325.636719 241.773438 320.902344 243.476562 317.015625 C 242.71875 317.519531 242.011719 318.144531 241.386719 318.890625 C 237.953125 323.015625 238.289062 329.289062 242.140625 332.898438 C 245.996094 336.507812 251.90625 336.085938 255.339844 331.960938 C 255.964844 331.210938 256.464844 330.394531 256.839844 329.53125 C 253.414062 331.800781 248.882812 331.546875 245.726562 328.59375 " fill-opacity="1" fill-rule="nonzero"/><path fill="#ffd400" d="M 270.414062 303.316406 C 267.636719 299.960938 267.410156 295.148438 269.554688 291.515625 C 268.746094 291.914062 267.96875 292.441406 267.265625 293.101562 C 263.371094 296.738281 262.957031 303.011719 266.347656 307.113281 C 269.738281 311.214844 275.640625 311.589844 279.539062 307.949219 C 280.242188 307.289062 280.835938 306.542969 281.308594 305.738281 C 277.644531 307.53125 273.1875 306.671875 270.414062 303.316406 " fill-opacity="1" fill-rule="nonzero"/><path fill="#ffaa71" d="M 109.195312 0 C 111.703125 79.734375 115.820312 186.644531 115.820312 186.644531 L 169.878906 186.03125 L 173.957031 0 L 109.195312 0 " fill-opacity="1" fill-rule="nonzero"/><path fill="#8530f0" d="M 170.683594 204.542969 L 169.941406 184.820312 C 169.941406 184.820312 138.308594 185.839844 115.882812 185.433594 C 114.929688 199.21875 114.480469 206.761719 114.480469 206.761719 L 170.683594 204.542969 " fill-opacity="1" fill-rule="nonzero"/><path fill="#682bc9" d="M 166.925781 204.421875 L 166.019531 204.363281 L 167.234375 184.988281 L 168.144531 185.046875 L 166.925781 204.421875 " fill-opacity="1" fill-rule="nonzero"/><path fill="#682bc9" d="M 162.074219 204.464844 L 161.164062 204.40625 L 162.371094 185.152344 L 163.28125 185.210938 L 162.074219 204.464844 " fill-opacity="1" fill-rule="nonzero"/><path fill="#682bc9" d="M 156.195312 206.324219 L 157.511719 185.300781 L 158.421875 185.355469 L 158.421875 185.386719 L 157.214844 204.621094 L 156.195312 206.324219 " fill-opacity="1" fill-rule="nonzero"/><path fill="#682bc9" d="M 152.367188 204.570312 L 151.457031 204.511719 L 152.65625 185.429688 L 153.566406 185.484375 L 152.367188 204.570312 " fill-opacity="1" fill-rule="nonzero"/><path fill="#682bc9" d="M 147.515625 204.632812 L 146.605469 204.574219 L 147.800781 185.539062 L 148.710938 185.59375 L 147.515625 204.632812 " fill-opacity="1" fill-rule="nonzero"/><path fill="#682bc9" d="M 142.660156 204.710938 L 141.75 204.652344 L 142.945312 185.628906 L 143.855469 185.683594 L 142.660156 204.710938 " fill-opacity="1" fill-rule="nonzero"/><path fill="#682bc9" d="M 137.804688 204.796875 L 136.894531 204.742188 L 138.089844 185.699219 L 139 185.757812 L 137.804688 204.796875 " fill-opacity="1" fill-rule="nonzero"/><path fill="#682bc9" d="M 132.949219 204.902344 L 132.039062 204.84375 L 133.238281 185.746094 L 134.148438 185.800781 L 132.949219 204.902344 " fill-opacity="1" fill-rule="nonzero"/><path fill="#682bc9" d="M 128.089844 205.03125 L 127.183594 204.976562 L 128.386719 185.765625 L 129.296875 185.820312 L 128.089844 205.03125 " fill-opacity="1" fill-rule="nonzero"/><path fill="#682bc9" d="M 123.230469 205.199219 L 122.320312 205.144531 L 123.535156 185.753906 L 124.445312 185.808594 L 123.230469 205.199219 " fill-opacity="1" fill-rule="nonzero"/><path fill="#682bc9" d="M 118.363281 205.453125 L 117.453125 205.398438 L 118.691406 185.703125 L 119.597656 185.761719 L 118.363281 205.453125 " fill-opacity="1" fill-rule="nonzero"/><g clip-path="url(#2e623fb53b)"><path fill="#ffd400" d="M 64.347656 330.53125 C 60.917969 333.148438 58.183594 337.246094 56.605469 341.910156 C 52.808594 353.125 55.71875 367.582031 71.84375 372.417969 C 83.949219 376.046875 92.636719 375.070312 99.792969 371.519531 C 103.351562 369.753906 106.523438 367.359375 109.550781 364.578125 C 111.925781 362.394531 114.207031 359.984375 116.507812 357.453125 C 116.980469 356.933594 117.46875 356.390625 117.984375 355.835938 C 118.570312 355.199219 119.175781 354.539062 119.808594 353.863281 C 121.597656 351.9375 123.582031 349.84375 125.710938 347.640625 C 127.378906 345.917969 129.136719 344.128906 130.96875 342.304688 C 134.140625 339.140625 137.53125 335.863281 141.046875 332.621094 C 141.386719 332.308594 141.726562 331.996094 142.070312 331.683594 C 144.585938 329.378906 147.164062 327.101562 149.761719 324.902344 C 150.191406 324.539062 150.621094 324.175781 151.050781 323.820312 C 155.03125 320.496094 159.054688 317.375 162.996094 314.648438 C 164.605469 313.535156 166.199219 312.488281 167.765625 311.519531 C 167.765625 311.519531 167.777344 311.515625 167.789062 311.507812 C 168.257812 311.214844 168.726562 310.933594 169.191406 310.65625 C 184.160156 301.800781 181.3125 288.980469 178.710938 284.277344 C 177.382812 281.871094 177.414062 281.277344 176.066406 278.703125 C 174.109375 274.972656 172.230469 267.546875 171.378906 257.339844 C 171 252.769531 170.824219 247.644531 170.941406 242.042969 C 170.96875 240.746094 171.015625 239.425781 171.074219 238.074219 C 171.359375 231.667969 171.648438 227.242188 171.628906 225.695312 C 171.609375 224.382812 171.589844 223.128906 171.558594 221.9375 C 171.390625 214.335938 171.074219 209.261719 170.863281 206.597656 C 170.851562 206.457031 170.839844 206.324219 170.828125 206.195312 C 170.761719 205.355469 170.710938 204.808594 170.683594 204.542969 C 170.671875 204.421875 170.664062 204.363281 170.664062 204.363281 C 170.664062 204.363281 169.089844 204.371094 166.472656 204.390625 C 165.113281 204.402344 163.472656 204.414062 161.621094 204.433594 C 160.125 204.449219 158.496094 204.464844 156.765625 204.484375 C 155.21875 204.496094 153.589844 204.515625 151.914062 204.539062 C 150.332031 204.558594 148.707031 204.578125 147.0625 204.605469 C 145.457031 204.628906 143.832031 204.65625 142.207031 204.679688 C 140.578125 204.707031 138.953125 204.738281 137.351562 204.769531 C 135.699219 204.800781 134.074219 204.835938 132.496094 204.871094 C 130.808594 204.914062 129.179688 204.957031 127.636719 205.003906 C 125.890625 205.054688 124.257812 205.113281 122.773438 205.171875 C 120.871094 205.246094 119.21875 205.332031 117.910156 205.421875 L 117.910156 205.425781 C 116.152344 205.542969 115.007812 205.679688 114.695312 205.828125 C 114.632812 205.859375 114.574219 205.917969 114.515625 206.007812 C 113.136719 208.042969 112.109375 225.628906 111.625 242.835938 C 111.519531 246.550781 111.4375 250.25 111.386719 253.769531 C 111.269531 261.476562 111.28125 268.332031 111.441406 272.660156 C 111.625 277.476562 108.421875 283.890625 103.550781 290.730469 C 103.324219 291.050781 103.089844 291.375 102.855469 291.695312 L 102.855469 291.699219 L 102.839844 291.714844 C 102.003906 292.859375 101.128906 294.011719 100.207031 295.171875 C 98.5 297.335938 96.664062 299.523438 94.75 301.6875 C 91.824219 305 88.726562 308.273438 85.640625 311.378906 C 84.390625 312.636719 83.140625 313.867188 81.910156 315.058594 C 81.699219 315.261719 81.492188 315.460938 81.28125 315.660156 L 81.28125 315.664062 L 81.21875 315.722656 C 80.011719 316.886719 78.816406 318.011719 77.652344 319.09375 L 77.527344 319.210938 C 73.421875 323.011719 69.664062 326.269531 66.746094 328.636719 C 65.863281 329.355469 65.0625 329.988281 64.347656 330.53125 " fill-opacity="1" fill-rule="nonzero"/></g><path fill="#8530f0" d="M 176.066406 278.703125 C 176.066406 278.703125 145.84375 284.78125 145.597656 289.878906 C 145.371094 294.601562 167.765625 311.519531 167.765625 311.519531 C 167.765625 311.519531 190.996094 302.128906 176.066406 278.703125 " fill-opacity="1" fill-rule="nonzero"/><g clip-path="url(#51ee4279cf)"><path fill="#8530f0" d="M 99.792969 371.519531 C 99.792969 371.519531 95.855469 355.464844 81.796875 346.414062 C 70.832031 339.355469 56.605469 341.910156 56.605469 341.910156 C 56.605469 341.910156 50.933594 352.695312 58.769531 364.1875 C 64.6875 372.996094 76.789062 374.386719 76.789062 374.386719 C 76.789062 374.386719 91.726562 376.964844 99.792969 371.519531 " fill-opacity="1" fill-rule="nonzero"/></g><path fill="#60f0d9" d="M 159.148438 212.726562 L 155.878906 218.851562 L 149.320312 219.648438 L 153.742188 224.625 L 152.234375 231.417969 L 158.238281 228.371094 L 163.863281 231.769531 L 163.152344 224.910156 L 168.140625 220.21875 L 161.695312 219.027344 L 159.148438 212.726562 " fill-opacity="1" fill-rule="nonzero"/><path fill="#60f0d9" d="M 129.585938 213.222656 L 126.316406 219.339844 L 119.757812 220.140625 L 124.179688 225.117188 L 122.671875 231.910156 L 128.675781 228.863281 L 134.304688 232.261719 L 133.589844 225.402344 L 138.578125 220.710938 L 132.132812 219.519531 L 129.585938 213.222656 " fill-opacity="1" fill-rule="nonzero"/><path fill="#60f0d9" d="M 144.324219 237.101562 L 141.050781 243.222656 L 134.492188 244.023438 L 138.914062 249 L 137.40625 255.789062 L 143.410156 252.742188 L 149.039062 256.144531 L 148.324219 249.285156 L 153.3125 244.59375 L 146.867188 243.398438 L 144.324219 237.101562 " fill-opacity="1" fill-rule="nonzero"/><path fill="#60f0d9" d="M 159.917969 256.113281 L 156.648438 262.234375 L 150.089844 263.035156 L 154.511719 268.011719 L 153.003906 274.800781 L 159.007812 271.753906 L 164.636719 275.152344 L 163.921875 268.296875 L 168.910156 263.605469 L 162.464844 262.410156 L 159.917969 256.113281 " fill-opacity="1" fill-rule="nonzero"/><path fill="#60f0d9" d="M 128.132812 260.296875 L 124.863281 266.417969 L 118.304688 267.214844 L 122.726562 272.195312 L 121.21875 278.984375 L 127.222656 275.9375 L 132.851562 279.335938 L 132.136719 272.476562 L 137.125 267.789062 L 130.679688 266.59375 L 128.132812 260.296875 " fill-opacity="1" fill-rule="nonzero"/><path fill="#60f0d9" d="M 85.640625 311.378906 L 87.425781 315.796875 L 93.871094 316.992188 L 88.882812 321.683594 L 89.59375 328.542969 L 83.964844 325.140625 L 77.960938 328.1875 L 79.472656 321.398438 L 77.527344 319.210938 L 77.652344 319.09375 L 81.21875 315.722656 L 81.28125 315.664062 L 81.28125 315.660156 L 81.609375 315.621094 L 81.910156 315.058594 L 85.640625 311.378906 " fill-opacity="1" fill-rule="nonzero"/><path fill="#60f0d9" d="M 121.765625 311.523438 L 118.496094 317.640625 L 111.933594 318.441406 L 116.359375 323.417969 L 114.847656 330.210938 L 120.851562 327.164062 L 126.480469 330.5625 L 125.769531 323.703125 L 130.757812 319.011719 L 124.3125 317.820312 L 121.765625 311.523438 " fill-opacity="1" fill-rule="nonzero"/><path fill="#60f0d9" d="M 98.691406 331.859375 L 95.421875 337.980469 L 88.859375 338.777344 L 93.28125 343.753906 L 91.773438 350.546875 L 97.777344 347.5 L 103.40625 350.898438 L 102.695312 344.039062 L 107.679688 339.347656 L 101.238281 338.15625 L 98.691406 331.859375 " fill-opacity="1" fill-rule="nonzero"/><path fill="#60f0d9" d="M 117.984375 355.835938 L 118.273438 354.523438 L 113.851562 349.542969 L 120.410156 348.746094 L 123.683594 342.625 L 125.710938 347.640625 L 117.984375 355.835938 " fill-opacity="1" fill-rule="nonzero"/><path fill="#60f0d9" d="M 138.046875 327.15625 L 142.070312 331.683594 C 144.585938 329.378906 147.164062 327.101562 149.761719 324.902344 L 147.875 320.234375 L 144.605469 326.355469 L 138.046875 327.15625 " fill-opacity="1" fill-rule="nonzero"/><path fill="#60f0d9" d="M 149.648438 295.980469 L 146.574219 295.410156 L 144.027344 289.109375 L 140.757812 295.234375 L 134.195312 296.03125 L 138.621094 301.011719 L 137.113281 307.800781 L 143.113281 304.753906 L 148.746094 308.152344 L 148.03125 301.292969 L 151.601562 297.933594 L 149.648438 295.980469 " fill-opacity="1" fill-rule="nonzero"/><path fill="#60f0d9" d="M 102.855469 291.699219 L 102.855469 291.695312 L 104.238281 291.527344 L 107.507812 285.40625 L 110.054688 291.703125 L 116.5 292.898438 L 111.507812 297.589844 L 112.222656 304.445312 L 106.59375 301.050781 L 100.589844 304.09375 L 102.097656 297.300781 L 100.207031 295.171875 L 102.855469 291.699219 " fill-opacity="1" fill-rule="nonzero"/><path fill="#60f0d9" d="M 111.625 242.835938 C 111.519531 246.550781 111.4375 250.25 111.386719 253.769531 L 114.21875 252.332031 L 119.847656 255.730469 L 119.132812 248.871094 L 124.121094 244.179688 L 117.675781 242.984375 L 115.128906 236.6875 L 111.859375 242.808594 L 111.625 242.835938 " fill-opacity="1" fill-rule="nonzero"/><path fill="#ffaa71" d="M 197.101562 0 C 199.613281 79.734375 203.726562 186.644531 203.726562 186.644531 L 257.785156 186.03125 L 261.863281 0 L 197.101562 0 " fill-opacity="1" fill-rule="nonzero"/><path fill="#7ff048" d="M 203.214844 202.765625 L 203.5625 181.28125 C 203.5625 181.28125 235.730469 181.136719 258.054688 179.835938 C 259.3125 194.421875 259.347656 201.082031 259.347656 201.082031 L 203.214844 202.765625 " fill-opacity="1" fill-rule="nonzero"/><path fill="#40d3ac" d="M 207.148438 200.804688 L 206.023438 181.386719 L 206.933594 181.332031 L 208.058594 200.753906 L 207.148438 200.804688 " fill-opacity="1" fill-rule="nonzero"/><path fill="#40d3ac" d="M 211.980469 200.652344 L 210.863281 181.355469 L 211.769531 181.304688 L 212.890625 200.601562 L 211.980469 200.652344 " fill-opacity="1" fill-rule="nonzero"/><path fill="#40d3ac" d="M 217.839844 202.53125 L 216.816406 200.605469 L 215.699219 181.308594 L 216.609375 181.257812 L 217.839844 202.53125 " fill-opacity="1" fill-rule="nonzero"/><path fill="#40d3ac" d="M 221.640625 200.371094 L 220.53125 181.246094 L 221.441406 181.191406 L 222.550781 200.316406 L 221.640625 200.371094 " fill-opacity="1" fill-rule="nonzero"/><path fill="#40d3ac" d="M 226.472656 200.238281 L 225.363281 181.160156 L 226.273438 181.109375 L 227.382812 200.1875 L 226.472656 200.238281 " fill-opacity="1" fill-rule="nonzero"/><path fill="#40d3ac" d="M 231.304688 200.125 L 230.199219 181.054688 L 231.109375 181.003906 L 232.214844 200.070312 L 231.304688 200.125 " fill-opacity="1" fill-rule="nonzero"/><path fill="#40d3ac" d="M 236.136719 200.019531 L 235.03125 180.933594 L 235.941406 180.882812 L 237.046875 199.964844 L 236.136719 200.019531 " fill-opacity="1" fill-rule="nonzero"/><path fill="#40d3ac" d="M 240.972656 199.929688 L 239.859375 180.785156 L 240.769531 180.734375 L 241.882812 199.878906 L 240.972656 199.929688 " fill-opacity="1" fill-rule="nonzero"/><path fill="#40d3ac" d="M 245.808594 199.867188 L 244.691406 180.609375 L 245.601562 180.558594 L 246.714844 199.8125 L 245.808594 199.867188 " fill-opacity="1" fill-rule="nonzero"/><path fill="#40d3ac" d="M 250.644531 199.839844 L 249.515625 180.40625 L 250.429688 180.355469 L 251.554688 199.789062 L 250.644531 199.839844 " fill-opacity="1" fill-rule="nonzero"/><path fill="#40d3ac" d="M 255.488281 199.898438 L 254.34375 180.164062 L 255.25 180.113281 L 256.398438 199.847656 L 255.488281 199.898438 " fill-opacity="1" fill-rule="nonzero"/><path fill="#f06930" d="M 308.71875 323.433594 C 312.121094 325.925781 314.828125 329.933594 316.375 334.554688 C 320.109375 345.671875 317.148438 360.316406 301.078125 365.816406 C 289.011719 369.949219 280.367188 369.3125 273.257812 366.03125 C 269.726562 364.402344 266.578125 362.125 263.574219 359.445312 C 261.222656 357.351562 258.960938 355.019531 256.683594 352.566406 C 255.683594 351.488281 254.585938 350.328125 253.410156 349.089844 C 250.246094 345.773438 246.488281 341.9375 242.351562 337.925781 C 239.207031 334.875 235.84375 331.71875 232.363281 328.597656 C 229.136719 325.714844 225.804688 322.859375 222.445312 320.15625 C 218.492188 316.976562 214.5 314.003906 210.589844 311.421875 C 208.992188 310.363281 207.410156 309.375 205.847656 308.460938 C 205.84375 308.460938 205.835938 308.457031 205.832031 308.453125 C 205.367188 308.179688 204.902344 307.914062 204.441406 307.65625 C 189.578125 299.355469 192.46875 286.359375 195.078125 281.527344 C 196.410156 279.0625 196.378906 278.464844 197.734375 275.824219 C 199.699219 271.996094 201.601562 264.460938 202.496094 254.171875 L 202.492188 254.171875 C 202.890625 249.566406 203.085938 244.410156 202.992188 238.785156 C 202.96875 237.484375 202.933594 236.15625 202.878906 234.804688 C 202.621094 228.378906 202.351562 223.9375 202.378906 222.386719 C 202.402344 221.066406 202.433594 219.804688 202.464844 218.609375 C 202.664062 210.964844 203.003906 205.855469 203.226562 203.167969 C 203.234375 203.027344 203.25 202.890625 203.261719 202.761719 C 203.328125 201.917969 203.382812 201.367188 203.414062 201.097656 C 203.425781 200.976562 203.429688 200.914062 203.429688 200.914062 C 203.429688 200.914062 256.714844 199.074219 259.140625 200.152344 C 261.5625 201.230469 262.746094 251.21875 262.089844 267.167969 C 261.890625 272.015625 265.050781 278.332031 269.867188 285.011719 C 272.398438 288.515625 275.382812 292.121094 278.582031 295.667969 C 284.019531 301.699219 290.070312 307.5625 295.527344 312.472656 C 299.640625 316.175781 303.417969 319.339844 306.34375 321.628906 C 307.214844 322.3125 308.011719 322.917969 308.71875 323.433594 " fill-opacity="1" fill-rule="nonzero"/><path fill="#7ff048" d="M 197.734375 275.824219 C 197.734375 275.824219 227.792969 280.726562 228.015625 285.835938 C 228.222656 290.574219 205.851562 308.464844 205.851562 308.464844 C 205.851562 308.464844 182.773438 299.960938 197.734375 275.824219 " fill-opacity="1" fill-rule="nonzero"/><g clip-path="url(#d855e92374)"><path fill="#7ff048" d="M 273.257812 366.03125 C 273.257812 366.03125 277.25 349.746094 291.285156 340.085938 C 302.226562 332.558594 316.378906 334.554688 316.378906 334.554688 C 316.378906 334.554688 321.980469 345.164062 314.128906 357.027344 C 308.199219 366.113281 296.144531 367.992188 296.144531 367.992188 C 296.144531 367.992188 281.265625 371.183594 273.257812 366.03125 " fill-opacity="1" fill-rule="nonzero"/></g><path fill="#ffd400" d="M 212.316406 220.152344 C 210.632812 216.054688 211.78125 211.378906 214.851562 208.589844 C 213.96875 208.710938 213.082031 208.96875 212.226562 209.371094 C 207.488281 211.609375 205.320312 217.476562 207.375 222.484375 C 209.4375 227.488281 214.941406 229.734375 219.675781 227.503906 C 220.535156 227.097656 221.308594 226.574219 221.988281 225.957031 C 218 226.5 214.003906 224.25 212.316406 220.152344 " fill-opacity="1" fill-rule="nonzero"/><path fill="#ffd400" d="M 247.933594 218.363281 C 246.015625 214.382812 246.894531 209.644531 249.800781 206.664062 C 248.925781 206.84375 248.058594 207.15625 247.222656 207.613281 C 242.621094 210.152344 240.792969 216.148438 243.132812 221.007812 C 245.476562 225.867188 251.105469 227.753906 255.707031 225.21875 C 256.542969 224.757812 257.285156 224.183594 257.929688 223.523438 C 253.972656 224.324219 249.851562 222.339844 247.933594 218.363281 " fill-opacity="1" fill-rule="nonzero"/><path fill="#ffd400" d="M 230.613281 242.386719 C 228.695312 238.40625 229.574219 233.667969 232.480469 230.691406 C 231.605469 230.867188 230.734375 231.179688 229.902344 231.640625 C 225.300781 234.175781 223.46875 240.171875 225.8125 245.03125 C 228.15625 249.894531 233.785156 251.777344 238.386719 249.242188 C 239.21875 248.78125 239.964844 248.207031 240.609375 247.546875 C 236.652344 248.351562 232.53125 246.363281 230.613281 242.386719 " fill-opacity="1" fill-rule="nonzero"/><path fill="#ffd400" d="M 212.660156 265.105469 C 210.742188 261.125 211.621094 256.386719 214.527344 253.40625 C 213.652344 253.585938 212.78125 253.898438 211.949219 254.359375 C 207.347656 256.894531 205.515625 262.890625 207.859375 267.75 C 210.203125 272.609375 215.832031 274.496094 220.433594 271.960938 C 221.269531 271.5 222.011719 270.925781 222.65625 270.269531 C 218.699219 271.066406 214.578125 269.082031 212.660156 265.105469 " fill-opacity="1" fill-rule="nonzero"/><path fill="#ffd400" d="M 250.070312 266.097656 C 248.152344 262.117188 249.03125 257.378906 251.9375 254.398438 C 251.0625 254.578125 250.195312 254.890625 249.359375 255.351562 C 244.757812 257.886719 242.929688 263.882812 245.269531 268.742188 C 247.613281 273.601562 253.242188 275.488281 257.84375 272.953125 C 258.679688 272.492188 259.421875 271.917969 260.066406 271.257812 C 256.109375 272.0625 251.992188 270.078125 250.070312 266.097656 " fill-opacity="1" fill-rule="nonzero"/><path fill="#ffd400" d="M 240.875 295.316406 C 238.335938 291.757812 238.433594 286.9375 240.816406 283.476562 C 239.980469 283.808594 239.175781 284.277344 238.425781 284.882812 C 234.300781 288.21875 233.46875 294.449219 236.570312 298.800781 C 239.671875 303.148438 245.53125 303.972656 249.65625 300.636719 C 250.40625 300.03125 251.046875 299.332031 251.574219 298.566406 C 247.800781 300.078125 243.414062 298.878906 240.875 295.316406 " fill-opacity="1" fill-rule="nonzero"/><path fill="#ffd400" d="M 278.574219 333.554688 C 275.535156 330.46875 274.914062 325.699219 276.757812 321.886719 C 275.980469 322.355469 275.253906 322.953125 274.601562 323.675781 C 271.015625 327.652344 271.117188 333.9375 274.832031 337.707031 C 278.546875 341.476562 284.460938 341.304688 288.050781 337.328125 C 288.703125 336.605469 289.230469 335.804688 289.636719 334.960938 C 286.132812 337.085938 281.613281 336.640625 278.574219 333.554688 " fill-opacity="1" fill-rule="nonzero"/><path fill="#ffd400" d="M 245.726562 328.59375 C 242.574219 325.636719 241.773438 320.902344 243.476562 317.015625 C 242.71875 317.519531 242.011719 318.144531 241.386719 318.890625 C 237.953125 323.015625 238.289062 329.289062 242.140625 332.898438 C 245.996094 336.507812 251.90625 336.085938 255.339844 331.960938 C 255.964844 331.210938 256.464844 330.394531 256.839844 329.53125 C 253.414062 331.800781 248.882812 331.546875 245.726562 328.59375 " fill-opacity="1" fill-rule="nonzero"/><path fill="#ffd400" d="M 270.414062 303.316406 C 267.636719 299.960938 267.410156 295.148438 269.554688 291.515625 C 268.746094 291.914062 267.96875 292.441406 267.265625 293.101562 C 263.371094 296.738281 262.957031 303.011719 266.347656 307.113281 C 269.738281 311.214844 275.640625 311.589844 279.539062 307.949219 C 280.242188 307.289062 280.835938 306.542969 281.308594 305.738281 C 277.644531 307.53125 273.1875 306.671875 270.414062 303.316406 " fill-opacity="1" fill-rule="nonzero"/></svg>